<svg xmlns="http://www.w3.org/2000/svg" xmlns:xlink="http://www.w3.org/1999/xlink" width="1000" zoomAndPan="magnify" viewBox="0 0 750 749.999995" height="1000" preserveAspectRatio="xMidYMid meet" version="1.0"><path fill="#000000" d="M 375.539062 750 C 168.34375 750 0 581.65625 0 374.460938 C 0 167.265625 168.34375 -1.078125 375.539062 -1.078125 C 582.734375 -1.078125 751.078125 167.265625 751.078125 374.460938 C 751.078125 581.65625 582.734375 750 375.539062 750 Z M 375.539062 43.707031 C 193.703125 43.707031 45.324219 192.085938 45.324219 373.921875 C 45.324219 556.296875 193.703125 704.136719 375.539062 704.136719 C 557.375 704.136719 705.753906 555.753906 705.753906 373.921875 C 706.292969 192.085938 557.914062 43.707031 375.539062 43.707031 Z M 375.539062 43.707031 " fill-opacity="1" fill-rule="nonzero"/><path fill="#000000" d="M 424.101562 232.015625 L 458.632812 232.015625 L 458.632812 522.300781 L 424.101562 522.300781 Z M 424.101562 232.015625 " fill-opacity="1" fill-rule="nonzero"/><path fill="#000000" d="M 292.445312 232.015625 L 326.976562 232.015625 L 326.976562 522.300781 L 292.445312 522.300781 Z M 292.445312 232.015625 " fill-opacity="1" fill-rule="nonzero"/></svg>