<svg xmlns="http://www.w3.org/2000/svg" xmlns:xlink="http://www.w3.org/1999/xlink" width="1000" zoomAndPan="magnify" viewBox="0 0 750 749.999995" height="1000" preserveAspectRatio="xMidYMid meet" version="1.0"><path fill="#000000" d="M 515.578125 371.203125 L 293.117188 242.773438 C 287.464844 239.511719 280.519531 239.511719 274.875 242.773438 C 269.230469 246.027344 265.753906 252.046875 265.753906 258.566406 L 265.753906 515.453125 C 265.753906 521.96875 269.230469 527.996094 274.875 531.25 C 277.695312 532.902344 280.847656 533.703125 283.996094 533.703125 C 287.144531 533.703125 290.292969 532.882812 293.117188 531.25 L 515.578125 402.820312 C 521.234375 399.558594 524.699219 393.539062 524.699219 387.015625 C 524.699219 380.496094 521.222656 374.46875 515.578125 371.203125 Z M 515.578125 371.203125 " fill-opacity="1" fill-rule="nonzero"/><path fill="#000000" d="M 374.679688 749.59375 C 167.964844 749.59375 -0.214844 581.414062 -0.214844 374.691406 C -0.214844 167.96875 167.964844 -0.210938 374.679688 -0.210938 C 581.40625 -0.210938 749.59375 167.96875 749.59375 374.691406 C 749.59375 581.414062 581.40625 749.59375 374.679688 749.59375 Z M 374.679688 36.765625 C 188.351562 36.765625 36.761719 188.363281 36.761719 374.691406 C 36.761719 561.027344 188.351562 712.617188 374.679688 712.617188 C 561.015625 712.617188 712.617188 561.015625 712.617188 374.691406 C 712.617188 188.355469 561.015625 36.765625 374.679688 36.765625 Z M 374.679688 36.765625 " fill-opacity="1" fill-rule="nonzero"/></svg>